<mxfile host="app.diagrams.net" modified="2022-02-28T08:17:29.973Z" agent="5.0 (Windows NT 10.0; Win64; x64) AppleWebKit/537.36 (KHTML, like Gecko) Chrome/98.0.4758.102 Safari/537.36" etag="Vz08urqO7ILJ0s1op4fq" version="16.5.6" type="github">
  <diagram id="t8Y7ojLWVbgkkgcMnLQu" name="Page-1">
    <mxGraphModel dx="2862" dy="1922" grid="0" gridSize="10" guides="1" tooltips="1" connect="1" arrows="1" fold="1" page="0" pageScale="1" pageWidth="827" pageHeight="1169" math="0" shadow="0">
      <root>
        <mxCell id="0" />
        <mxCell id="1" parent="0" />
        <mxCell id="0brMyMKNP4jkfmAV0mL4-5" value="Presentation" style="rounded=0;whiteSpace=wrap;html=1;verticalAlign=top;align=center;fontSize=14;horizontal=1;fontStyle=1" vertex="1" parent="1">
          <mxGeometry x="-467" y="-582" width="412" height="108" as="geometry" />
        </mxCell>
        <mxCell id="0brMyMKNP4jkfmAV0mL4-6" value="Infrastructure" style="rounded=0;whiteSpace=wrap;html=1;fontSize=14;fontStyle=1" vertex="1" parent="1">
          <mxGeometry x="71" y="-582" width="138" height="694" as="geometry" />
        </mxCell>
        <mxCell id="0brMyMKNP4jkfmAV0mL4-7" value="Model" style="swimlane;fontSize=14;startSize=23;fontStyle=0" vertex="1" parent="1">
          <mxGeometry x="-459" y="-544.5" width="127" height="61" as="geometry">
            <mxRectangle x="-467" y="-465" width="146" height="23" as="alternateBounds" />
          </mxGeometry>
        </mxCell>
        <mxCell id="0brMyMKNP4jkfmAV0mL4-9" value="Converter" style="swimlane;fontSize=14;startSize=23;fontStyle=0" vertex="1" parent="1">
          <mxGeometry x="-324.5" y="-544.5" width="127" height="61" as="geometry">
            <mxRectangle x="-467" y="-465" width="146" height="23" as="alternateBounds" />
          </mxGeometry>
        </mxCell>
        <mxCell id="0brMyMKNP4jkfmAV0mL4-16" value="Presenter" style="swimlane;fontSize=14;startSize=23;fontStyle=0" vertex="1" parent="1">
          <mxGeometry x="-190" y="-544.5" width="127" height="61" as="geometry">
            <mxRectangle x="-467" y="-465" width="146" height="23" as="alternateBounds" />
          </mxGeometry>
        </mxCell>
        <mxCell id="0brMyMKNP4jkfmAV0mL4-29" value="Application" style="rounded=0;whiteSpace=wrap;html=1;verticalAlign=top;align=center;fontSize=14;horizontal=1;fontStyle=1" vertex="1" parent="1">
          <mxGeometry x="-467" y="-295" width="412" height="108" as="geometry" />
        </mxCell>
        <mxCell id="0brMyMKNP4jkfmAV0mL4-30" value="Domain" style="rounded=0;whiteSpace=wrap;html=1;verticalAlign=top;align=center;fontSize=14;horizontal=1;fontStyle=1" vertex="1" parent="1">
          <mxGeometry x="-467" y="-67" width="412" height="179" as="geometry" />
        </mxCell>
        <mxCell id="0brMyMKNP4jkfmAV0mL4-25" value="DTO" style="swimlane;fontSize=14;startSize=23;fontStyle=0" vertex="1" parent="1">
          <mxGeometry x="-459" y="-258" width="127" height="61" as="geometry">
            <mxRectangle x="-467" y="-465" width="146" height="23" as="alternateBounds" />
          </mxGeometry>
        </mxCell>
        <mxCell id="0brMyMKNP4jkfmAV0mL4-13" value="Assembler" style="swimlane;fontSize=14;startSize=23;fontStyle=0" vertex="1" parent="1">
          <mxGeometry x="-324.5" y="-258" width="127" height="61" as="geometry">
            <mxRectangle x="-467" y="-465" width="146" height="23" as="alternateBounds" />
          </mxGeometry>
        </mxCell>
        <mxCell id="0brMyMKNP4jkfmAV0mL4-11" value="Service" style="swimlane;fontSize=14;startSize=23;fontStyle=0" vertex="1" parent="1">
          <mxGeometry x="-190" y="-258" width="127" height="61" as="geometry">
            <mxRectangle x="-467" y="-465" width="146" height="23" as="alternateBounds" />
          </mxGeometry>
        </mxCell>
        <mxCell id="0brMyMKNP4jkfmAV0mL4-14" value="TypeVal" style="swimlane;fontSize=14;startSize=23;fontStyle=0" vertex="1" parent="1">
          <mxGeometry x="76.5" y="157" width="127" height="61" as="geometry">
            <mxRectangle x="-467" y="-465" width="146" height="23" as="alternateBounds" />
          </mxGeometry>
        </mxCell>
        <mxCell id="0brMyMKNP4jkfmAV0mL4-12" value="Network" style="swimlane;fontSize=14;startSize=23;fontStyle=0" vertex="1" parent="1">
          <mxGeometry x="76.5" y="-420" width="127" height="61" as="geometry">
            <mxRectangle x="-467" y="-465" width="146" height="23" as="alternateBounds" />
          </mxGeometry>
        </mxCell>
        <mxCell id="0brMyMKNP4jkfmAV0mL4-26" value="Util" style="swimlane;fontSize=14;startSize=23;fontStyle=0" vertex="1" parent="1">
          <mxGeometry x="76.5" y="-495.5" width="127" height="61" as="geometry">
            <mxRectangle x="-467" y="-465" width="146" height="23" as="alternateBounds" />
          </mxGeometry>
        </mxCell>
        <mxCell id="0brMyMKNP4jkfmAV0mL4-10" value="Common" style="swimlane;fontSize=14;startSize=23;fontStyle=0" vertex="1" parent="1">
          <mxGeometry x="76.5" y="-571" width="127" height="61" as="geometry">
            <mxRectangle x="-467" y="-465" width="146" height="23" as="alternateBounds" />
          </mxGeometry>
        </mxCell>
        <mxCell id="0brMyMKNP4jkfmAV0mL4-24" value="Service" style="swimlane;fontSize=14;startSize=23;fontStyle=0" vertex="1" parent="1">
          <mxGeometry x="-190" y="-30" width="127" height="61" as="geometry">
            <mxRectangle x="-467" y="-465" width="146" height="23" as="alternateBounds" />
          </mxGeometry>
        </mxCell>
        <mxCell id="0brMyMKNP4jkfmAV0mL4-23" value="Entity" style="swimlane;fontSize=14;startSize=23;fontStyle=0" vertex="1" parent="1">
          <mxGeometry x="-459" y="-30" width="127" height="61" as="geometry">
            <mxRectangle x="-467" y="-465" width="146" height="23" as="alternateBounds" />
          </mxGeometry>
        </mxCell>
        <mxCell id="0brMyMKNP4jkfmAV0mL4-22" value="Cache" style="swimlane;fontSize=14;startSize=23;fontStyle=0" vertex="1" parent="1">
          <mxGeometry x="76.5" y="-343" width="127" height="61" as="geometry">
            <mxRectangle x="-467" y="-465" width="146" height="23" as="alternateBounds" />
          </mxGeometry>
        </mxCell>
        <mxCell id="0brMyMKNP4jkfmAV0mL4-21" value="Service" style="swimlane;fontSize=14;startSize=23;fontStyle=0" vertex="1" parent="1">
          <mxGeometry x="76.5" y="-191" width="127" height="61" as="geometry">
            <mxRectangle x="-467" y="-465" width="146" height="23" as="alternateBounds" />
          </mxGeometry>
        </mxCell>
        <mxCell id="0brMyMKNP4jkfmAV0mL4-20" value="Factory" style="swimlane;fontSize=14;startSize=23;fontStyle=0" vertex="1" parent="1">
          <mxGeometry x="-324.5" y="-30" width="127" height="61" as="geometry">
            <mxRectangle x="-467" y="-465" width="146" height="23" as="alternateBounds" />
          </mxGeometry>
        </mxCell>
        <mxCell id="0brMyMKNP4jkfmAV0mL4-19" value="IRepository" style="swimlane;fontSize=14;startSize=23;fontStyle=0" vertex="1" parent="1">
          <mxGeometry x="-459" y="41" width="127" height="61" as="geometry">
            <mxRectangle x="-467" y="-465" width="146" height="23" as="alternateBounds" />
          </mxGeometry>
        </mxCell>
        <mxCell id="0brMyMKNP4jkfmAV0mL4-15" value="Repository" style="swimlane;fontSize=14;startSize=23;fontStyle=0" vertex="1" parent="1">
          <mxGeometry x="76.5" y="-114" width="127" height="61" as="geometry">
            <mxRectangle x="-467" y="-465" width="146" height="23" as="alternateBounds" />
          </mxGeometry>
        </mxCell>
        <mxCell id="0brMyMKNP4jkfmAV0mL4-18" value="FileStorage" style="swimlane;fontSize=14;startSize=23;fontStyle=0" vertex="1" parent="1">
          <mxGeometry x="76.5" y="-33" width="127" height="61" as="geometry">
            <mxRectangle x="-467" y="-465" width="146" height="23" as="alternateBounds" />
          </mxGeometry>
        </mxCell>
        <mxCell id="0brMyMKNP4jkfmAV0mL4-17" value="ExternalLibrary" style="swimlane;fontSize=14;startSize=23;fontStyle=0" vertex="1" parent="1">
          <mxGeometry x="76.5" y="40" width="127" height="61" as="geometry">
            <mxRectangle x="-467" y="-465" width="146" height="23" as="alternateBounds" />
          </mxGeometry>
        </mxCell>
      </root>
    </mxGraphModel>
  </diagram>
</mxfile>
